# xmcd
#
# Track frame offsets:
#       150
#       26742
#       53695
#       77300
#       101042
#       118077
#       134262
#       162695
#       179137
#       197017
#       215385
#       235182
#       253562
#       266987
#       284980
#       304862
#
# Disc length: 4308 seconds
#
# Revision: 1
# Processed by: cddbd v1.5.1PL0 Copyright (c) Steve Scherf et al.
# Submitted via: MusiCat 1.1
#
DISCID=f510d210
DTITLE=Various Artist - Furacão 2000 Internacional
DYEAR=1900
DGENRE=
TTITLE0=Chicago Gangster - Feel Like Make Love
TTITLE1=C.O.D. - In The Bottle
TTITLE2=Double Vision - Clock On The Wall
TTITLE3=Lil Jazzy Jay and Cool Supreme - B Boys Style
TTITLE4=Tymex Social Club - Rumors
TTITLE5=Eddie Sky White - Baby Be Mine
TTITLE6=The Megatrons - Rock The Planet
TTITLE7=Dimples Tee - Jealons Phellaes
TTITLE8=Tony Lorenzo - Destiny
TTITLE9=The Mistress DJ Madame E - I Got Your Wild Thang
TTITLE10=Stevie B - Party Your Body
TTITLE11=Jazzi And Neat - Touch Me Baby
TTITLE12=Rodney O Joe Cooley - Cooley High
TTITLE13=Mc Shy D - Yes Yes
TTITLE14=Remy - Another Love
TTITLE15=Salt'N'Pepa - Push It
EXTD=\n\n
EXTT0=
EXTT1=
EXTT2=
EXTT3=
EXTT4=
EXTT5=
EXTT6=
EXTT7=
EXTT8=
EXTT9=
EXTT10=
EXTT11=
EXTT12=
EXTT13=
EXTT14=
EXTT15=
PLAYORDER=
